<svg width="59" height="98" viewBox="0 0 59 98" fill="none" xmlns="http://www.w3.org/2000/svg">
<mask id="path-1-inside-1_563_320" fill="white">
<path d="M40.6316 9.12024C43.0305 11.4097 43.1193 15.2112 40.8298 17.6101L31.7096 27.1665L22.1532 18.0463C19.7543 15.7569 19.6651 11.9561 21.9543 9.55708C24.2438 7.15813 28.0452 7.06936 30.4442 9.35883L31.3131 10.1881L32.1424 9.31917C34.4318 6.92025 38.2326 6.83086 40.6316 9.12024Z"/>
</mask>
<path d="M40.6316 9.12024C43.0305 11.4097 43.1193 15.2112 40.8298 17.6101L31.7096 27.1665L22.1532 18.0463C19.7543 15.7569 19.6651 11.9561 21.9543 9.55708C24.2438 7.15813 28.0452 7.06936 30.4442 9.35883L31.3131 10.1881L32.1424 9.31917C34.4318 6.92025 38.2326 6.83086 40.6316 9.12024Z" fill="#EE521F"/>
<path d="M40.6316 9.12024L41.322 8.39681L41.322 8.3968L40.6316 9.12024ZM40.8298 17.6101L40.1064 16.9197L40.8298 17.6101ZM31.7096 27.1665L31.0192 27.8899L31.7426 28.5803L32.433 27.8569L31.7096 27.1665ZM21.9543 9.55708L21.2309 8.86668L21.2308 8.86672L21.9543 9.55708ZM31.3131 10.1881L30.6227 10.9115L31.3461 11.602L32.0365 10.8785L31.3131 10.1881ZM40.6316 9.12024L39.9412 9.84366C41.9406 11.7518 42.0146 14.9203 40.1064 16.9197L40.8298 17.6101L41.5533 18.3005C44.224 15.502 44.1205 11.0676 41.322 8.39681L40.6316 9.12024ZM40.8298 17.6101L40.1064 16.9197L30.9862 26.4761L31.7096 27.1665L32.433 27.8569L41.5533 18.3005L40.8298 17.6101ZM31.7096 27.1665L32.4 26.4431L22.8436 17.3228L22.1532 18.0463L21.4628 18.7697L31.0192 27.8899L31.7096 27.1665ZM22.1532 18.0463L22.8436 17.3228C20.8442 15.4146 20.7699 12.2468 22.6777 10.2474L21.9543 9.55708L21.2308 8.86672C18.5602 11.6653 18.6645 16.0991 21.4628 18.7697L22.1532 18.0463ZM21.9543 9.55708L22.6777 10.2475C24.5859 8.24807 27.7543 8.17408 29.7538 10.0822L30.4442 9.35883L31.1346 8.6354C28.3361 5.96463 23.9016 6.06819 21.2309 8.86668L21.9543 9.55708ZM30.4442 9.35883L29.7538 10.0822L30.6227 10.9115L31.3131 10.1881L32.0035 9.4647L31.1346 8.6354L30.4442 9.35883ZM31.3131 10.1881L32.0365 10.8785L32.8658 10.0096L32.1424 9.31917L31.419 8.62876L30.5897 9.49772L31.3131 10.1881ZM32.1424 9.31917L32.8658 10.0096C34.7741 8.01005 37.9419 7.93571 39.9412 9.84367L40.6316 9.12024L41.322 8.3968C38.5233 5.72601 34.0896 5.83044 31.419 8.62876L32.1424 9.31917Z" fill="#EE521F" mask="url(#path-1-inside-1_563_320)"/>
<path d="M23.7439 11.2034C23.022 11.1513 22.5407 12.9631 22.3903 13.8756C21.8037 14.0842 21.6571 13.6583 21.6571 13.4193C21.5669 11.9072 22.7851 10.9643 23.4055 10.6819C23.5409 9.84766 24.6651 9.3784 25.2103 9.24805C25.842 9.40447 25.7743 9.92153 25.6615 10.1605C24.353 10.2648 23.8379 10.8992 23.7439 11.2034Z" fill="white" stroke="#EE521F"/>
<path d="M25.5098 60.833L25.5527 60.8418L25.5957 60.8438L31.6006 61.084L31.6211 61.085L31.6416 61.084L37.3457 60.8438L37.3936 60.8418L37.4395 60.8311L42.4092 59.6543V61.4941L41.4619 62.3066H21L20.0518 61.0742V59.6436L25.5098 60.833Z" fill="#EE521F" stroke="#EE521F"/>
<rect x="4.5" y="32.3242" width="54" height="2.12227" fill="#EE521F" stroke="#EE521F"/>
<mask id="path-6-inside-2_563_320" fill="white">
<path d="M59 36.5079C59 39.5673 58.2887 42.5967 56.9067 45.4232C55.5247 48.2497 53.499 50.818 50.9454 52.9813C48.3918 55.1446 45.3602 56.8607 42.0238 58.0314C38.6873 59.2022 35.1114 59.8048 31.5 59.8048C27.8886 59.8048 24.3127 59.2022 20.9762 58.0314C17.6398 56.8607 14.6082 55.1446 12.0546 52.9813C9.50095 50.818 7.47532 48.2497 6.09331 45.4232C4.71131 42.5967 4 39.5673 4 36.5079L31.5 36.5079H59Z"/>
</mask>
<path d="M59 36.5079C59 39.5673 58.2887 42.5967 56.9067 45.4232C55.5247 48.2497 53.499 50.818 50.9454 52.9813C48.3918 55.1446 45.3602 56.8607 42.0238 58.0314C38.6873 59.2022 35.1114 59.8048 31.5 59.8048C27.8886 59.8048 24.3127 59.2022 20.9762 58.0314C17.6398 56.8607 14.6082 55.1446 12.0546 52.9813C9.50095 50.818 7.47532 48.2497 6.09331 45.4232C4.71131 42.5967 4 39.5673 4 36.5079L31.5 36.5079H59Z" fill="#EE521F" stroke="#EE521F" stroke-width="2" mask="url(#path-6-inside-2_563_320)"/>
<path d="M8.50346 39.6905C7.54276 39.066 6.90229 39.4303 6.70215 39.6905C7.61481 47.184 12.9667 51.1388 15.5286 52.1796C10.4849 47.8084 8.74363 42.0322 8.50346 39.6905Z" fill="white" stroke="#EE521F"/>
<path d="M18.9505 21.4347C26.2519 22.7316 25.9957 27.5791 24.9549 29.8408C20.4516 21.6148 21.5324 27.6192 14.147 22.2152C8.23874 17.8921 11.6853 13.609 14.147 12.0078C12.706 14.6097 11.6492 20.1377 18.9505 21.4347Z" fill="#EE521F" stroke="#EE521F"/>
<path d="M43.5709 21.4347C36.2696 22.7316 36.5258 27.5791 37.5666 29.8408C42.0699 21.6148 40.989 27.6192 48.3744 22.2152C54.2827 17.8921 50.8362 13.609 48.3744 12.0078C49.8155 14.6097 50.8723 20.1377 43.5709 21.4347Z" fill="#EE521F" stroke="#EE521F"/>
<path d="M36.9648 47.2754C37.4876 47.2754 37.722 47.4432 37.8467 47.6191C37.9931 47.826 38.0655 48.1531 38.0488 48.5898C38.0155 49.461 37.6427 50.459 37.4736 50.8428C37.1483 51.5812 36.67 52.2539 36.0654 52.8223C35.4608 53.3907 34.7412 53.8432 33.9473 54.1523C33.1533 54.4615 32.3014 54.6211 31.4404 54.6211C30.5795 54.6211 29.7275 54.4615 28.9336 54.1523C28.1397 53.8432 27.42 53.3907 26.8154 52.8223C26.2111 52.254 25.7335 51.5811 25.4082 50.8428C25.2496 50.4827 24.985 49.6702 24.9443 48.876C24.9051 48.1078 25.0765 47.5486 25.5068 47.2754H36.9648Z" fill="white" stroke="#EE521F"/>
<circle cx="40.8666" cy="43.8334" r="1.90175" fill="white" stroke="#EE521F"/>
<circle cx="21.5326" cy="43.8334" r="1.90175" fill="white" stroke="#EE521F"/>
<path d="M35.398 84.0039L31.4951 87.3664L40.5617 94.8118C44.6927 96.1567 45.125 92.7703 44.8248 90.9089L35.398 84.0039Z" fill="#004E6D" stroke="#004E6D" stroke-width="5"/>
<path d="M25.6114 82.381L19.607 77.4574C14.4193 80.1473 9.55972 77.5776 7.77842 75.9565C2.63869 70.5766 3.83556 65.829 5.07646 64.1278C7.19 60.8614 13.5226 62.7668 16.4247 64.1278C21.8527 66.4815 22.0488 72.0335 21.4684 74.5153L29.214 79.8592L25.6114 82.381Z" fill="#004E6D" stroke="#004E6D" stroke-width="5"/>
<path d="M13.5433 65.9312C12.5345 64.298 8.71977 64.9705 6.93848 65.5109C8.66773 63.2052 12.6226 63.9898 14.3839 64.6704C15.0564 65.6791 14.1037 65.9313 13.5433 65.9312Z" fill="white" stroke="#004E6D" stroke-width="5"/>
<path d="M16.6656 67.3115L15.2846 66.3508C15.0925 65.5823 15.6849 65.6303 16.0051 65.7504L17.266 66.6511C17.6023 67.3235 17.0058 67.3716 16.6656 67.3115Z" fill="white" stroke="#004E6D" stroke-width="5"/>
<path d="M39.3441 74.8114L16.7677 90.5428C15.9271 92.5043 15.4947 96.1149 20.4904 94.866L41.3856 77.3933C43.347 78.0938 47.8222 78.8703 50.0319 76.3725L57.8976 68.4468C58.1177 67.9264 58.1978 66.9817 56.7567 67.366L49.7316 72.89C48.891 73.1502 47.462 73.2263 48.4707 71.449L55.3157 65.2044C55.6159 64.664 55.8201 63.6553 54.2349 63.9435L46.6094 69.3473C45.9489 69.5274 44.748 69.5154 45.2284 68.0264L52.5537 61.9619C52.8139 61.5016 52.974 60.653 51.5329 60.9412L40.7251 68.0264C39.9245 68.787 38.5275 71.2088 39.3441 74.8114Z" fill="#004E6D" stroke="#004E6D"/>
</svg>
